<svg width="208" height="208" viewBox="0 0 208 208" fill="none" xmlns="http://www.w3.org/2000/svg">
<circle cx="104" cy="104" r="104" fill="white"/>
<path d="M165.405 129.833L153.805 134.489L161.523 144.322M184.724 135.009L192.442 144.842L180.842 149.498M164.412 152.86L181.836 126.47" stroke="black" stroke-width="4" stroke-linecap="round" stroke-linejoin="round"/>
<path d="M41.4319 68.2727H42.6933L45.6592 75.517H45.7614L48.7273 68.2727H49.9887V77H49.0001V70.3693H48.9148L46.1876 77H45.233L42.5058 70.3693H42.4205V77H41.4319V68.2727ZM53.7856 77H52.6777L55.8822 68.2727H56.9731L60.1777 77H59.0697L56.4618 69.6534H56.3936L53.7856 77ZM54.1947 73.5909H58.6606V74.5284H54.1947V73.5909ZM69.7775 68.2727V77H68.7548L63.9991 70.1477H63.9139V77H62.8571V68.2727H63.8798L68.6525 75.142H68.7377V68.2727H69.7775ZM72.7349 69.2102V68.2727H79.2804V69.2102H76.5361V77H75.4793V69.2102H72.7349ZM82.2314 77V68.2727H87.4985V69.2102H83.2882V72.1591H87.2257V73.0966H83.2882V76.0625H87.5667V77H82.2314ZM97.6438 68.2727V77H96.621L91.8653 70.1477H91.7801V77H90.7233V68.2727H91.746L96.5188 75.142H96.604V68.2727H97.6438ZM102.135 68.2727V77H101.078V68.2727H102.135ZM105.574 68.2727H106.836L109.802 75.517H109.904L112.87 68.2727H114.131V77H113.142V70.3693H113.057L110.33 77H109.375L106.648 70.3693H106.563V77H105.574V68.2727ZM118.627 68.2727V77H117.57V68.2727H118.627ZM122.066 77V68.2727H127.333V69.2102H123.123V72.1591H127.06V73.0966H123.123V76.0625H127.401V77H122.066ZM137.478 68.2727V77H136.455L131.7 70.1477H131.614V77H130.558V68.2727H131.58L136.353 75.142H136.438V68.2727H137.478ZM140.436 69.2102V68.2727H146.981V69.2102H144.237V77H143.18V69.2102H140.436ZM156.932 72.6364C156.932 73.5568 156.766 74.3523 156.434 75.0227C156.101 75.6932 155.645 76.2102 155.066 76.5739C154.486 76.9375 153.824 77.1193 153.08 77.1193C152.336 77.1193 151.674 76.9375 151.094 76.5739C150.515 76.2102 150.059 75.6932 149.726 75.0227C149.394 74.3523 149.228 73.5568 149.228 72.6364C149.228 71.7159 149.394 70.9205 149.726 70.25C150.059 69.5795 150.515 69.0625 151.094 68.6989C151.674 68.3352 152.336 68.1534 153.08 68.1534C153.824 68.1534 154.486 68.3352 155.066 68.6989C155.645 69.0625 156.101 69.5795 156.434 70.25C156.766 70.9205 156.932 71.7159 156.932 72.6364ZM155.91 72.6364C155.91 71.8807 155.783 71.2429 155.53 70.723C155.28 70.2031 154.941 69.8097 154.512 69.5426C154.086 69.2756 153.609 69.142 153.08 69.142C152.552 69.142 152.073 69.2756 151.644 69.5426C151.218 69.8097 150.878 70.2031 150.626 70.723C150.376 71.2429 150.251 71.8807 150.251 72.6364C150.251 73.392 150.376 74.0298 150.626 74.5497C150.878 75.0696 151.218 75.4631 151.644 75.7301C152.073 75.9972 152.552 76.1307 153.08 76.1307C153.609 76.1307 154.086 75.9972 154.512 75.7301C154.941 75.4631 155.28 75.0696 155.53 74.5497C155.783 74.0298 155.91 73.392 155.91 72.6364ZM164.802 70.4545C164.751 70.0227 164.544 69.6875 164.18 69.4489C163.816 69.2102 163.37 69.0909 162.842 69.0909C162.456 69.0909 162.117 69.1534 161.828 69.2784C161.541 69.4034 161.316 69.5753 161.154 69.794C160.995 70.0128 160.916 70.2614 160.916 70.5398C160.916 70.7727 160.971 70.973 161.082 71.1406C161.196 71.3054 161.34 71.4432 161.517 71.554C161.693 71.6619 161.877 71.7514 162.071 71.8224C162.264 71.8906 162.441 71.946 162.603 71.9886L163.49 72.2273C163.717 72.2869 163.97 72.3693 164.248 72.4744C164.529 72.5795 164.798 72.723 165.054 72.9048C165.312 73.0838 165.525 73.3139 165.693 73.5952C165.86 73.8764 165.944 74.2216 165.944 74.6307C165.944 75.1023 165.821 75.5284 165.573 75.9091C165.329 76.2898 164.971 76.5923 164.5 76.8168C164.031 77.0412 163.461 77.1534 162.791 77.1534C162.166 77.1534 161.625 77.0526 161.167 76.8509C160.713 76.6491 160.355 76.3679 160.093 76.0071C159.835 75.6463 159.688 75.2273 159.654 74.75H160.745C160.774 75.0795 160.885 75.3523 161.078 75.5682C161.274 75.7812 161.521 75.9403 161.819 76.0455C162.12 76.1477 162.444 76.1989 162.791 76.1989C163.194 76.1989 163.556 76.1335 163.877 76.0028C164.198 75.8693 164.453 75.6847 164.64 75.4489C164.828 75.2102 164.921 74.9318 164.921 74.6136C164.921 74.3239 164.84 74.0881 164.679 73.9062C164.517 73.7244 164.304 73.5767 164.039 73.4631C163.775 73.3494 163.49 73.25 163.183 73.1648L162.109 72.858C161.427 72.6619 160.887 72.3821 160.49 72.0185C160.092 71.6548 159.893 71.179 159.893 70.5909C159.893 70.1023 160.025 69.6761 160.289 69.3125C160.556 68.946 160.914 68.6619 161.363 68.4602C161.815 68.2557 162.319 68.1534 162.876 68.1534C163.438 68.1534 163.938 68.2543 164.376 68.456C164.813 68.6548 165.16 68.9276 165.416 69.2741C165.674 69.6207 165.811 70.0142 165.825 70.4545H164.802ZM47.8042 90.1193C47.2304 90.1193 46.736 90.0142 46.3213 89.804C45.9065 89.5937 45.5869 89.3054 45.3625 88.9389C45.138 88.5724 45.0258 88.1534 45.0258 87.6818C45.0258 87.3182 45.1025 86.9957 45.2559 86.7145C45.4122 86.4304 45.6267 86.1676 45.8994 85.9261C46.175 85.6818 46.4917 85.4375 46.8497 85.1932L48.111 84.2557C48.3582 84.0937 48.5557 83.9205 48.7034 83.7358C48.8539 83.5511 48.9292 83.3097 48.9292 83.0114C48.9292 82.7898 48.8312 82.5753 48.6352 82.3679C48.442 82.1605 48.1878 82.0568 47.8724 82.0568C47.6508 82.0568 47.4548 82.1136 47.2843 82.2273C47.1167 82.3381 46.9846 82.4801 46.888 82.6534C46.7943 82.8239 46.7474 83 46.7474 83.1818C46.7474 83.3864 46.8028 83.5938 46.9136 83.804C47.0272 84.0114 47.1707 84.2244 47.344 84.4432C47.5201 84.6591 47.702 84.8807 47.8895 85.108L51.8951 90H50.6849L47.3781 86.0114C47.0713 85.642 46.7929 85.3068 46.5429 85.0057C46.2929 84.7045 46.094 84.4077 45.9463 84.1151C45.7985 83.8224 45.7247 83.5057 45.7247 83.1648C45.7247 82.7727 45.8113 82.429 45.9846 82.1335C46.1608 81.8352 46.4065 81.6037 46.7218 81.4389C47.04 81.2713 47.4122 81.1875 47.8383 81.1875C48.2758 81.1875 48.6522 81.2727 48.9676 81.4432C49.2829 81.6108 49.5258 81.8338 49.6963 82.1122C49.8667 82.3878 49.952 82.6875 49.952 83.0114C49.952 83.429 49.8483 83.7912 49.6409 84.098C49.4335 84.4048 49.1508 84.6903 48.7929 84.9545L47.0542 86.25C46.6622 86.5398 46.3966 86.821 46.2574 87.0938C46.1182 87.3665 46.0485 87.5625 46.0485 87.6818C46.0485 87.9545 46.1196 88.2088 46.2616 88.4446C46.4037 88.6804 46.6039 88.8707 46.8625 89.0156C47.121 89.1605 47.4235 89.233 47.7701 89.233C48.0997 89.233 48.4207 89.1634 48.7332 89.0241C49.0457 88.8821 49.3284 88.6776 49.5812 88.4105C49.8369 88.1435 50.0386 87.8224 50.1863 87.4474C50.3369 87.0724 50.4122 86.6506 50.4122 86.1818H51.3838C51.3838 86.7614 51.317 87.2344 51.1835 87.6009C51.05 87.9673 50.8994 88.2543 50.7318 88.4616C50.5642 88.669 50.4292 88.8239 50.327 88.9261C50.2929 88.9687 50.2616 89.0114 50.2332 89.054C50.2048 89.0966 50.1735 89.1392 50.1395 89.1818C49.8582 89.4972 49.5031 89.733 49.0741 89.8892C48.6451 90.0426 48.2218 90.1193 47.8042 90.1193ZM59.1598 90V81.2727H62.1086C62.7905 81.2727 63.3501 81.3892 63.7876 81.6222C64.2251 81.8523 64.549 82.169 64.7592 82.5724C64.9694 82.9759 65.0746 83.4347 65.0746 83.9489C65.0746 84.4631 64.9694 84.919 64.7592 85.3168C64.549 85.7145 64.2265 86.027 63.7919 86.2543C63.3572 86.4787 62.8018 86.5909 62.1257 86.5909H59.7393V85.6364H62.0916C62.5575 85.6364 62.9325 85.5682 63.2166 85.4318C63.5035 85.2955 63.7109 85.1023 63.8388 84.8523C63.9694 84.5994 64.0348 84.2983 64.0348 83.9489C64.0348 83.5994 63.9694 83.294 63.8388 83.0327C63.7081 82.7713 63.4993 82.5696 63.2123 82.4276C62.9254 82.2827 62.5461 82.2102 62.0746 82.2102H60.2166V90H59.1598ZM63.2677 86.0795L65.4155 90H64.1882L62.0746 86.0795H63.2677ZM68.1556 90V81.2727H73.4226V82.2102H69.2124V85.1591H73.1499V86.0966H69.2124V89.0625H73.4908V90H68.1556ZM76.6474 90V81.2727H79.5963C80.281 81.2727 80.8406 81.3963 81.2753 81.6435C81.7128 81.8878 82.0366 82.2188 82.2469 82.6364C82.4571 83.054 82.5622 83.5199 82.5622 84.0341C82.5622 84.5483 82.4571 85.0156 82.2469 85.4361C82.0395 85.8565 81.7185 86.1918 81.2838 86.4418C80.8491 86.6889 80.2923 86.8125 79.6133 86.8125H77.4997V85.875H79.5793C80.048 85.875 80.4244 85.794 80.7085 85.6321C80.9926 85.4702 81.1986 85.2514 81.3264 84.9759C81.4571 84.6974 81.5224 84.3835 81.5224 84.0341C81.5224 83.6847 81.4571 83.3722 81.3264 83.0966C81.1986 82.821 80.9912 82.6051 80.7043 82.4489C80.4173 82.2898 80.0366 82.2102 79.5622 82.2102H77.7043V90H76.6474ZM85.052 90H83.944L87.1485 81.2727H88.2395L91.444 90H90.336L87.7281 82.6534H87.6599L85.052 90ZM85.461 86.5909H89.927V87.5284H85.461V86.5909ZM94.1234 90V81.2727H97.0722C97.7541 81.2727 98.3137 81.3892 98.7512 81.6222C99.1887 81.8523 99.5126 82.169 99.7228 82.5724C99.933 82.9759 100.038 83.4347 100.038 83.9489C100.038 84.4631 99.933 84.919 99.7228 85.3168C99.5126 85.7145 99.1901 86.027 98.7555 86.2543C98.3208 86.4787 97.7654 86.5909 97.0893 86.5909H94.7029V85.6364H97.0552C97.5211 85.6364 97.8961 85.5682 98.1802 85.4318C98.4671 85.2955 98.6745 85.1023 98.8024 84.8523C98.933 84.5994 98.9984 84.2983 98.9984 83.9489C98.9984 83.5994 98.933 83.294 98.8024 83.0327C98.6717 82.7713 98.4629 82.5696 98.1759 82.4276C97.889 82.2827 97.5097 82.2102 97.0382 82.2102H95.1802V90H94.1234ZM98.2313 86.0795L100.379 90H99.1518L97.0382 86.0795H98.2313ZM103.477 90H102.369L105.574 81.2727H106.665L109.869 90H108.761L106.153 82.6534H106.085L103.477 90ZM103.886 86.5909H108.352V87.5284H103.886V86.5909ZM119.161 84H118.104C118.042 83.696 117.932 83.429 117.776 83.1989C117.623 82.9688 117.435 82.7756 117.214 82.6193C116.995 82.4602 116.752 82.3409 116.485 82.2614C116.218 82.1818 115.94 82.142 115.65 82.142C115.121 82.142 114.643 82.2756 114.214 82.5426C113.788 82.8097 113.448 83.2031 113.195 83.723C112.945 84.2429 112.82 84.8807 112.82 85.6364C112.82 86.392 112.945 87.0298 113.195 87.5497C113.448 88.0696 113.788 88.4631 114.214 88.7301C114.643 88.9972 115.121 89.1307 115.65 89.1307C115.94 89.1307 116.218 89.0909 116.485 89.0114C116.752 88.9318 116.995 88.8139 117.214 88.6577C117.435 88.4986 117.623 88.304 117.776 88.0739C117.932 87.8409 118.042 87.5739 118.104 87.2727H119.161C119.082 87.7187 118.937 88.1179 118.726 88.4702C118.516 88.8224 118.255 89.1222 117.942 89.3693C117.63 89.6136 117.279 89.7997 116.89 89.9276C116.503 90.0554 116.09 90.1193 115.65 90.1193C114.905 90.1193 114.243 89.9375 113.664 89.5739C113.084 89.2102 112.628 88.6932 112.296 88.0227C111.964 87.3523 111.797 86.5568 111.797 85.6364C111.797 84.7159 111.964 83.9205 112.296 83.25C112.628 82.5795 113.084 82.0625 113.664 81.6989C114.243 81.3352 114.905 81.1534 115.65 81.1534C116.09 81.1534 116.503 81.2173 116.89 81.3452C117.279 81.473 117.63 81.6605 117.942 81.9077C118.255 82.152 118.516 82.4503 118.726 82.8026C118.937 83.152 119.082 83.5511 119.161 84ZM123.246 81.2727V90H122.189V81.2727H123.246ZM134.048 85.6364C134.048 86.5568 133.882 87.3523 133.55 88.0227C133.217 88.6932 132.761 89.2102 132.182 89.5739C131.602 89.9375 130.94 90.1193 130.196 90.1193C129.452 90.1193 128.79 89.9375 128.21 89.5739C127.631 89.2102 127.175 88.6932 126.842 88.0227C126.51 87.3523 126.344 86.5568 126.344 85.6364C126.344 84.7159 126.51 83.9205 126.842 83.25C127.175 82.5795 127.631 82.0625 128.21 81.6989C128.79 81.3352 129.452 81.1534 130.196 81.1534C130.94 81.1534 131.602 81.3352 132.182 81.6989C132.761 82.0625 133.217 82.5795 133.55 83.25C133.882 83.9205 134.048 84.7159 134.048 85.6364ZM133.026 85.6364C133.026 84.8807 132.899 84.2429 132.646 83.723C132.396 83.2031 132.057 82.8097 131.628 82.5426C131.202 82.2756 130.724 82.142 130.196 82.142C129.668 82.142 129.189 82.2756 128.76 82.5426C128.334 82.8097 127.994 83.2031 127.741 83.723C127.491 84.2429 127.366 84.8807 127.366 85.6364C127.366 86.392 127.491 87.0298 127.741 87.5497C127.994 88.0696 128.334 88.4631 128.76 88.7301C129.189 88.9972 129.668 89.1307 130.196 89.1307C130.724 89.1307 131.202 88.9972 131.628 88.7301C132.057 88.4631 132.396 88.0696 132.646 87.5497C132.899 87.0298 133.026 86.392 133.026 85.6364ZM144.066 81.2727V90H143.043L138.287 83.1477H138.202V90H137.145V81.2727H138.168L142.941 88.142H143.026V81.2727H144.066ZM147.5 90V81.2727H152.767V82.2102H148.557V85.1591H152.495V86.0966H148.557V89.0625H152.836V90H147.5ZM160.765 83.4545C160.714 83.0227 160.506 82.6875 160.143 82.4489C159.779 82.2102 159.333 82.0909 158.805 82.0909C158.418 82.0909 158.08 82.1534 157.791 82.2784C157.504 82.4034 157.279 82.5753 157.117 82.794C156.958 83.0128 156.879 83.2614 156.879 83.5398C156.879 83.7727 156.934 83.973 157.045 84.1406C157.158 84.3054 157.303 84.4432 157.48 84.554C157.656 84.6619 157.84 84.7514 158.033 84.8224C158.227 84.8906 158.404 84.946 158.566 84.9886L159.453 85.2273C159.68 85.2869 159.933 85.3693 160.211 85.4744C160.492 85.5795 160.761 85.723 161.016 85.9048C161.275 86.0838 161.488 86.3139 161.656 86.5952C161.823 86.8764 161.907 87.2216 161.907 87.6307C161.907 88.1023 161.783 88.5284 161.536 88.9091C161.292 89.2898 160.934 89.5923 160.462 89.8168C159.994 90.0412 159.424 90.1534 158.754 90.1534C158.129 90.1534 157.587 90.0526 157.13 89.8509C156.676 89.6491 156.318 89.3679 156.056 89.0071C155.798 88.6463 155.651 88.2273 155.617 87.75H156.708C156.737 88.0795 156.847 88.3523 157.041 88.5682C157.237 88.7812 157.484 88.9403 157.782 89.0455C158.083 89.1477 158.407 89.1989 158.754 89.1989C159.157 89.1989 159.519 89.1335 159.84 89.0028C160.161 88.8693 160.416 88.6847 160.603 88.4489C160.791 88.2102 160.884 87.9318 160.884 87.6136C160.884 87.3239 160.803 87.0881 160.641 86.9062C160.48 86.7244 160.266 86.5767 160.002 86.4631C159.738 86.3494 159.453 86.25 159.146 86.1648L158.072 85.858C157.39 85.6619 156.85 85.3821 156.453 85.0185C156.055 84.6548 155.856 84.179 155.856 83.5909C155.856 83.1023 155.988 82.6761 156.252 82.3125C156.519 81.946 156.877 81.6619 157.326 81.4602C157.778 81.2557 158.282 81.1534 158.839 81.1534C159.401 81.1534 159.901 81.2543 160.339 81.456C160.776 81.6548 161.123 81.9276 161.379 82.2741C161.637 82.6207 161.774 83.0142 161.788 83.4545H160.765ZM78.426 97C78.3323 96.7131 78.2087 96.456 78.0553 96.2287C77.9047 95.9986 77.7243 95.8026 77.5141 95.6406C77.3067 95.4787 77.0709 95.3551 76.8067 95.2699C76.5425 95.1847 76.2527 95.142 75.9374 95.142C75.4203 95.142 74.9502 95.2756 74.5269 95.5426C74.1036 95.8097 73.7669 96.2031 73.5169 96.723C73.2669 97.2429 73.1419 97.8807 73.1419 98.6364C73.1419 99.392 73.2683 100.03 73.5212 100.55C73.774 101.07 74.1164 101.463 74.5482 101.73C74.98 101.997 75.4658 102.131 76.0056 102.131C76.5056 102.131 76.9459 102.024 77.3266 101.811C77.7101 101.595 78.0084 101.291 78.2215 100.899C78.4374 100.504 78.5453 100.04 78.5453 99.5057L78.8692 99.5739H76.2442V98.6364H79.5681V99.5739C79.5681 100.293 79.4146 100.918 79.1078 101.449C78.8039 101.98 78.3834 102.392 77.8465 102.685C77.3124 102.974 76.6987 103.119 76.0056 103.119C75.2328 103.119 74.5539 102.938 73.9686 102.574C73.3862 102.21 72.9317 101.693 72.605 101.023C72.2811 100.352 72.1192 99.5568 72.1192 98.6364C72.1192 97.946 72.2115 97.3253 72.3962 96.7741C72.5837 96.2202 72.8479 95.7486 73.1888 95.3594C73.5297 94.9702 73.9331 94.6719 74.399 94.4645C74.8649 94.2571 75.3777 94.1534 75.9374 94.1534C76.3976 94.1534 76.8266 94.223 77.2243 94.3622C77.6249 94.4986 77.9814 94.6932 78.2939 94.946C78.6092 95.196 78.872 95.4957 79.0823 95.8452C79.2925 96.1918 79.4374 96.5767 79.5169 97H78.426ZM88.4253 94.2727H89.4822V100.051C89.4822 100.648 89.3415 101.18 89.0603 101.649C88.7819 102.115 88.3884 102.483 87.8799 102.753C87.3714 103.02 86.7748 103.153 86.0901 103.153C85.4055 103.153 84.8089 103.02 84.3003 102.753C83.7918 102.483 83.3969 102.115 83.1157 101.649C82.8373 101.18 82.6981 100.648 82.6981 100.051V94.2727H83.7549V99.9659C83.7549 100.392 83.8486 100.771 84.0361 101.104C84.2236 101.433 84.4907 101.693 84.8373 101.884C85.1867 102.071 85.6043 102.165 86.0901 102.165C86.5759 102.165 86.9935 102.071 87.343 101.884C87.6924 101.693 87.9594 101.433 88.1441 101.104C88.3316 100.771 88.4253 100.392 88.4253 99.9659V94.2727ZM97.6853 96.4545C97.6342 96.0227 97.4268 95.6875 97.0632 95.4489C96.6995 95.2102 96.2535 95.0909 95.7251 95.0909C95.3387 95.0909 95.0007 95.1534 94.7109 95.2784C94.424 95.4034 94.1995 95.5753 94.0376 95.794C93.8785 96.0128 93.799 96.2614 93.799 96.5398C93.799 96.7727 93.8544 96.973 93.9652 97.1406C94.0788 97.3054 94.2237 97.4432 94.3998 97.554C94.576 97.6619 94.7606 97.7514 94.9538 97.8224C95.147 97.8906 95.3245 97.946 95.4865 97.9886L96.3728 98.2273C96.6001 98.2869 96.8529 98.3693 97.1313 98.4744C97.4126 98.5795 97.6811 98.723 97.9367 98.9048C98.1953 99.0838 98.4083 99.3139 98.576 99.5952C98.7436 99.8764 98.8274 100.222 98.8274 100.631C98.8274 101.102 98.7038 101.528 98.4566 101.909C98.2123 102.29 97.8544 102.592 97.3828 102.817C96.914 103.041 96.3444 103.153 95.674 103.153C95.049 103.153 94.5078 103.053 94.0504 102.851C93.5958 102.649 93.2379 102.368 92.9765 102.007C92.718 101.646 92.5717 101.227 92.5376 100.75H93.6285C93.6569 101.08 93.7677 101.352 93.9609 101.568C94.1569 101.781 94.4041 101.94 94.7024 102.045C95.0035 102.148 95.3274 102.199 95.674 102.199C96.0774 102.199 96.4396 102.134 96.7606 102.003C97.0816 101.869 97.3359 101.685 97.5234 101.449C97.7109 101.21 97.8046 100.932 97.8046 100.614C97.8046 100.324 97.7237 100.088 97.5617 99.9062C97.3998 99.7244 97.1867 99.5767 96.9225 99.4631C96.6583 99.3494 96.3728 99.25 96.066 99.1648L94.9921 98.858C94.3103 98.6619 93.7706 98.3821 93.3728 98.0185C92.9751 97.6548 92.7762 97.179 92.7762 96.5909C92.7762 96.1023 92.9083 95.6761 93.1725 95.3125C93.4396 94.946 93.7975 94.6619 94.2464 94.4602C94.6981 94.2557 95.2024 94.1534 95.7592 94.1534C96.3217 94.1534 96.8217 94.2543 97.2592 94.456C97.6967 94.6548 98.0433 94.9276 98.299 95.2741C98.5575 95.6207 98.6939 96.0142 98.7081 96.4545H97.6853ZM101.408 95.2102V94.2727H107.953V95.2102H105.209V103H104.152V95.2102H101.408ZM110.243 103H109.135L112.339 94.2727H113.43L116.635 103H115.527L112.919 95.6534H112.851L110.243 103ZM110.652 99.5909H115.118V100.528H110.652V99.5909ZM118.852 94.2727L121.443 101.619H121.545L124.136 94.2727H125.244L122.039 103H120.948L117.744 94.2727H118.852ZM134.877 98.6364C134.877 99.5568 134.71 100.352 134.378 101.023C134.046 101.693 133.59 102.21 133.01 102.574C132.431 102.938 131.769 103.119 131.024 103.119C130.28 103.119 129.618 102.938 129.038 102.574C128.459 102.21 128.003 101.693 127.671 101.023C127.338 100.352 127.172 99.5568 127.172 98.6364C127.172 97.7159 127.338 96.9205 127.671 96.25C128.003 95.5795 128.459 95.0625 129.038 94.6989C129.618 94.3352 130.28 94.1534 131.024 94.1534C131.769 94.1534 132.431 94.3352 133.01 94.6989C133.59 95.0625 134.046 95.5795 134.378 96.25C134.71 96.9205 134.877 97.7159 134.877 98.6364ZM133.854 98.6364C133.854 97.8807 133.727 97.2429 133.475 96.723C133.225 96.2031 132.885 95.8097 132.456 95.5426C132.03 95.2756 131.553 95.142 131.024 95.142C130.496 95.142 130.017 95.2756 129.588 95.5426C129.162 95.8097 128.823 96.2031 128.57 96.723C128.32 97.2429 128.195 97.8807 128.195 98.6364C128.195 99.392 128.32 100.03 128.57 100.55C128.823 101.07 129.162 101.463 129.588 101.73C130.017 101.997 130.496 102.131 131.024 102.131C131.553 102.131 132.03 101.997 132.456 101.73C132.885 101.463 133.225 101.07 133.475 100.55C133.727 100.03 133.854 99.392 133.854 98.6364Z" fill="black"/>
<path d="M103.5 122V140M51.7778 122H155.222C163.384 122 170 116.627 170 110V62C170 55.3726 163.384 50 155.222 50H51.7778C43.6162 50 37 55.3726 37 62V110C37 116.627 43.6162 122 51.7778 122ZM59.1667 158H147.833V152C147.833 145.373 141.217 140 133.056 140H73.9444C65.7829 140 59.1667 145.373 59.1667 152V158Z" stroke="black" stroke-width="6" stroke-linecap="round" stroke-linejoin="round"/>
<path d="M28.8889 125H35.1111V128.816C35.8353 129.047 36.5279 129.357 37.1803 129.736L39.6996 127.036L44.0994 131.75L41.5801 134.45C41.9336 135.149 42.2224 135.891 42.438 136.667H46V143.333H42.438C42.2224 144.109 41.9336 144.851 41.5801 145.55L44.0994 148.25L39.6996 152.964L37.1803 150.264C36.5279 150.643 35.8353 150.953 35.1111 151.184V155H28.8889V151.184C28.1647 150.953 27.4721 150.643 26.8197 150.264L24.3004 152.964L19.9006 148.25L22.4199 145.55C22.0664 144.851 21.7776 144.109 21.562 143.333H18V136.667H21.562C21.7776 135.891 22.0664 135.149 22.4199 134.45L19.9006 131.75L24.3004 127.036L26.8197 129.736C27.4721 129.357 28.1647 129.047 28.8889 128.816V125Z" stroke="black" stroke-width="2" stroke-linejoin="round"/>
<path d="M36.6667 140C36.6667 142.761 34.5773 145 32 145C29.4227 145 27.3333 142.761 27.3333 140C27.3333 137.239 29.4227 135 32 135C34.5773 135 36.6667 137.239 36.6667 140Z" stroke="black" stroke-width="2" stroke-linejoin="round"/>
</svg>
